<?xml version="1.0" standalone="no"?>
<!DOCTYPE svg PUBLIC "-//W3C//DTD SVG 20010904//EN"
 "http://www.w3.org/TR/2001/REC-SVG-20010904/DTD/svg10.dtd">
<svg version="1.0" xmlns="http://www.w3.org/2000/svg"
 width="290.000000pt" height="84.000000pt" viewBox="0 0 290.000000 84.000000"
 preserveAspectRatio="xMidYMid meet">

<g transform="translate(0.000000,84.000000) scale(0.100000,-0.100000)"
fill="#000000" stroke="none">
<path d="M206 830 c52 -21 69 -88 34 -133 -17 -21 -18 -27 -7 -34 41 -24 48
-90 13 -130 -23 -27 -28 -28 -135 -31 l-111 -4 0 -49 0 -49 1450 0 1450 0 0
220 0 220 -52 0 c-53 -1 -53 -1 -26 -16 32 -17 58 -62 58 -99 0 -34 -25 -82
-50 -95 -19 -10 -19 -13 20 -70 l41 -60 -50 0 c-50 0 -50 0 -83 55 -45 74 -68
74 -68 0 l0 -55 -45 0 -45 0 0 170 0 170 -45 0 -45 0 0 -40 0 -40 -75 0 c-73
0 -75 -1 -75 -25 0 -24 2 -25 70 -25 l70 0 0 -35 0 -35 -70 0 -70 0 0 -30 0
-30 75 0 75 0 0 -40 0 -40 -120 0 -120 0 0 170 0 170 -37 0 c-38 -1 -38 -1
-100 -115 -56 -102 -63 -120 -63 -170 l0 -56 -42 3 -43 3 -1 59 c-1 52 -8 72
-60 167 l-59 109 -68 0 c-80 0 -80 23 -1 -185 30 -77 54 -143 54 -147 0 -4
-20 -8 -44 -8 -40 0 -44 2 -52 33 -10 32 -10 32 -74 32 -64 0 -64 0 -74 -32
-8 -31 -12 -33 -53 -33 -52 0 -55 -18 23 185 30 77 54 143 54 147 0 5 -76 8
-170 8 l-170 0 0 -130 0 -130 75 0 75 0 0 -40 0 -40 -120 0 -120 0 0 170 0
170 -77 0 -78 0 31 -19 c60 -37 70 -129 19 -180 -20 -21 -38 -27 -87 -31 l-61
-5 -1 -50 -1 -50 -42 -3 -43 -3 0 63 0 63 44 28 c25 16 57 27 78 27 40 0 58
15 58 47 0 26 -35 45 -73 39 -19 -2 -21 -8 -19 -39 4 -43 -6 -46 -54 -16 -32
19 -34 24 -34 75 l0 54 -85 0 c-47 0 -85 -2 -85 -4 0 -3 18 -15 40 -27 l40
-23 0 -112 0 -113 -45 -31 -45 -31 0 171 0 170 -45 0 -45 0 0 -40 0 -40 -75 0
-75 0 0 -30 0 -30 70 0 70 0 0 -40 0 -40 -70 0 -70 0 0 -60 0 -60 -45 0 -45 0
0 170 0 170 -82 -1 c-57 0 -76 -3 -62 -9z"/>
<path d="M1972 818 c8 -13 25 -43 38 -67 l22 -44 34 63 c19 35 34 65 34 67 0
2 -32 3 -71 3 l-71 0 14 -22z"/>
<path d="M89 765 c-4 -21 -2 -55 4 -55 4 0 22 0 41 0 39 0 53 21 30 45 -14 14
-73 22 -75 10z"/>
<path d="M2697 763 c-4 -3 -7 -24 -7 -45 0 -36 2 -38 31 -38 44 0 69 17 69 46
0 17 -8 27 -26 34 -29 12 -58 13 -67 3z"/>
<path d="M1662 687 c-17 -46 -16 -47 19 -47 24 0 30 3 25 16 -3 9 -9 27 -12
40 -8 33 -18 30 -32 -9z"/>
<path d="M89 635 c-8 -39 -1 -60 20 -63 43 -6 71 6 71 32 0 13 -7 27 -16 30
-19 7 -74 8 -75 1z"/>
<path d="M302 308 c-73 -20 -96 -138 -38 -196 39 -39 108 -38 142 1 13 15 24
32 24 38 0 16 -39 10 -60 -11 -11 -11 -27 -20 -35 -20 -8 0 -24 9 -35 20 -25
25 -27 91 -4 114 20 20 58 21 74 1 7 -8 23 -15 36 -15 24 0 24 1 9 30 -9 17
-17 30 -18 30 -1 0 -16 4 -32 8 -17 5 -45 5 -63 0z"/>
<path d="M1325 313 c-32 -8 -55 -34 -55 -64 0 -36 22 -57 76 -70 37 -10 45
-15 42 -33 -4 -27 -43 -33 -68 -11 -10 9 -29 15 -42 13 -23 -3 -23 -4 10 -37
30 -30 37 -33 75 -28 46 6 77 35 77 72 0 29 -21 46 -78 65 -52 17 -63 34 -32
50 17 9 26 8 46 -5 14 -9 35 -15 46 -13 21 3 21 3 -3 30 -25 27 -60 38 -94 31z"/>
<path d="M1655 312 c-33 -7 -55 -33 -55 -67 0 -40 12 -50 73 -66 40 -10 48
-15 45 -33 -4 -26 -49 -34 -68 -12 -13 17 -60 22 -60 8 0 -16 41 -52 66 -58
39 -10 87 8 104 39 22 40 -1 77 -60 94 -58 17 -69 29 -47 51 17 16 19 16 48
-1 37 -20 59 -22 59 -4 0 31 -58 58 -105 49z"/>
<path d="M2223 308 c-47 -12 -73 -51 -73 -110 0 -44 4 -54 35 -85 32 -32 40
-35 76 -30 44 6 74 27 82 58 7 26 -33 26 -56 -1 -21 -25 -38 -25 -67 -2 -25
20 -30 75 -11 111 14 25 62 29 81 6 7 -8 23 -15 36 -15 24 0 24 1 9 30 -9 17
-17 30 -18 30 -1 0 -16 4 -32 8 -17 5 -44 5 -62 0z"/>
<path d="M2564 312 c-30 -4 -56 -36 -56 -67 0 -35 13 -47 70 -65 35 -11 47
-20 47 -35 0 -25 -46 -33 -65 -11 -14 18 -60 22 -60 6 0 -17 38 -49 65 -56 40
-10 88 8 105 39 22 40 -1 77 -60 94 -58 17 -69 29 -47 51 17 16 19 16 48 -1
37 -21 59 -22 59 -3 0 28 -61 56 -106 48z"/>
<path d="M612 292 c-21 -17 -23 -24 -20 -111 l3 -93 75 0 c66 0 75 2 75 18 0
16 -9 20 -52 22 l-52 3 -3 89 -3 89 -23 -17z"/>
<path d="M967 268 c-8 -24 -26 -73 -40 -110 -25 -65 -25 -66 -5 -71 16 -4 23
1 31 24 10 26 16 29 54 29 36 0 45 -4 52 -24 9 -21 43 -40 54 -29 3 2 -14 52
-38 111 -36 94 -45 107 -67 110 -22 3 -28 -3 -41 -40z m58 -60 c6 -25 4 -28
-18 -28 -24 0 -25 1 -14 35 11 38 22 36 32 -7z"/>
<path d="M1930 202 c0 -60 3 -111 6 -114 3 -3 14 -4 25 -1 17 5 19 15 19 114
l0 109 -25 0 -25 0 0 -108z"/>
</g>
</svg>
